<svg width="142" height="47" viewBox="0 0 142 47" fill="none" xmlns="http://www.w3.org/2000/svg">
<path d="M26.9191 36.5159C26.9128 36.5312 26.905 36.5473 26.8976 36.5624C26.905 36.5473 26.9117 36.5309 26.9191 36.5159Z" fill="#FDE800"/>
<path d="M26.6071 37.0377C26.5935 37.0545 26.5798 37.0713 26.5665 37.087C26.5801 37.0702 26.5935 37.0545 26.6071 37.0377Z" fill="#FDE800"/>
<path d="M22.3509 36.3164C22.3834 36.2888 22.4162 36.2601 22.4466 36.2319C22.7343 35.9625 22.9512 35.6299 23.0924 35.2645C23.1534 35.1093 23.2008 34.9493 23.2334 34.7854C24.9375 26.2715 26.6419 17.7567 28.346 9.24284C28.4101 8.92718 28.4787 8.61159 28.5643 8.30057C28.6789 7.88145 28.8066 7.08984 28.4522 6.23722C28.1709 5.5632 27.7162 5.15738 27.4744 4.96992C27.4794 4.95989 27.4777 4.96173 27.4827 4.9517L14.7369 1.53648C14.0782 1.35997 13.367 1.46019 12.8072 1.84638C12.7738 1.86921 12.74 1.89311 12.707 1.91835C12.1658 2.33334 11.9489 2.85341 11.8714 3.07007C9.79964 9.17603 7.72862 15.2833 5.65682 21.3893L3.00094 29.3346C2.79138 29.9634 2.80582 30.6545 3.08078 31.2586C3.09731 31.2949 3.11489 31.3314 3.13355 31.3682C3.21986 31.5356 3.31824 31.6835 3.42145 31.8134C3.78214 32.2679 4.29421 32.5789 4.85504 32.7291L20.787 36.9981C21.0616 36.9649 21.7323 36.8458 22.3509 36.3164ZM12.9665 3.8701C10.0819 12.5197 7.19632 21.1691 4.3115 29.8198C4.18976 30.1847 4.17309 30.579 4.28321 30.947C4.28448 30.9507 4.28498 30.9531 4.28626 30.9569C4.45516 31.5099 4.80651 31.846 4.9713 31.9844C4.79677 31.9377 4.33713 31.7929 3.95372 31.3551C3.95032 31.3508 3.94585 31.3462 3.94245 31.3419C3.55755 30.8968 3.4501 30.2762 3.6358 29.7194C6.55314 20.9729 9.47046 12.2264 12.3878 3.47992C12.5039 3.13163 12.7096 2.81529 12.9978 2.58694C13.1412 2.47315 13.3176 2.3682 13.5301 2.29451C14.1614 2.07519 14.702 2.27116 14.8401 2.32633C14.6374 2.35041 14.1999 2.42968 13.7657 2.75181C13.5581 2.90519 13.4028 3.076 13.2873 3.23475C13.1466 3.42765 13.043 3.64411 12.9675 3.87039L12.9665 3.8701ZM11.9229 30.9471C11.6467 31.0923 11.3752 31.0457 11.2868 31.0266L7.17266 29.9242C7.10136 29.9051 7.03084 29.8873 6.9584 29.8724C6.87397 29.8555 6.71555 29.804 6.60795 29.6479C6.58603 29.6148 6.56943 29.5831 6.55631 29.5511C6.50823 29.4326 6.51165 29.3006 6.55098 29.1794C8.95448 21.7333 11.358 14.2872 13.7615 6.84117C13.7745 6.76287 13.8179 6.57116 13.9804 6.39888C13.9817 6.3981 13.9834 6.39626 13.985 6.39443C14.1374 6.23421 14.3723 6.17902 14.5873 6.23662L17.517 7.02164C17.7309 7.07895 17.9318 7.18502 18.0856 7.34323C18.1045 7.36193 18.1221 7.38142 18.1394 7.40196C18.1412 7.40359 18.1428 7.40628 18.1436 7.40762C18.3211 7.61764 18.3743 7.9045 18.3033 8.16946L12.5132 29.7785C12.4703 29.9385 12.4359 30.1008 12.4016 30.2632C12.3625 30.4515 12.2483 30.7753 11.9229 30.9471ZM19.9773 32.8304C19.7086 32.9901 19.4355 32.9578 19.346 32.9429L15.8974 32.2086C15.9231 32.2279 15.946 32.2443 15.9638 32.2547C15.694 32.1972 15.4254 32.14 15.1556 32.0825C15.0832 32.0676 15.0118 32.0531 14.9396 32.0417C14.854 32.029 14.6933 31.9859 14.5774 31.8356C14.5541 31.8032 14.5359 31.7733 14.5203 31.7419C14.4658 31.6262 14.4626 31.4936 14.4955 31.3706C16.5046 23.8086 18.5137 16.2466 20.5218 8.68439C20.5305 8.60494 20.564 8.41173 20.7173 8.2313C20.7176 8.23024 20.7203 8.22868 20.7219 8.22685C20.7255 8.22212 20.7309 8.21903 20.7344 8.2143C20.7374 8.21169 20.7396 8.20773 20.7415 8.20484C20.7418 8.20378 20.7445 8.20223 20.7461 8.20039C20.8904 8.03231 21.1218 7.96481 21.3396 8.01182L24.3059 8.64307C24.523 8.68873 24.7288 8.78477 24.8904 8.93486C24.9107 8.95279 24.9286 8.97121 24.9472 8.99098C24.9494 8.99155 24.9507 8.9953 24.9514 8.99665C25.1396 9.197 25.2083 9.48121 25.1514 9.74882L20.5047 31.6324C20.4703 31.7947 20.4448 31.9583 20.4189 32.1229C20.3897 32.3127 20.2923 32.6422 19.977 32.8314L19.9773 32.8304Z" fill="#FDE800"/>
<path d="M27.051 36.1514C27.0467 36.1673 27.0411 36.184 27.0358 36.1996C27.0401 36.1837 27.0467 36.1673 27.051 36.1514Z" fill="#FDE800"/>
<path d="M14.8388 2.32711C14.7007 2.27194 14.1601 2.07597 13.5288 2.29529C13.3162 2.36898 13.1398 2.47393 12.9964 2.58772C12.7083 2.81607 12.5026 3.13241 12.3865 3.48069C9.46914 12.2272 6.55181 20.9737 3.63448 29.7202C3.44878 30.277 3.55623 30.8976 3.94112 31.3426C3.94453 31.347 3.949 31.3516 3.9524 31.3559C4.33715 31.7929 4.79651 31.9388 4.96998 31.9852C4.80547 31.8457 4.45413 31.5096 4.28494 30.9577C4.28366 30.9539 4.28316 30.9515 4.28188 30.9478C4.1707 30.5795 4.18872 30.1845 4.31017 29.8206C7.19471 21.1709 10.0803 12.5216 12.9651 3.87088C13.0406 3.64461 13.1442 3.42815 13.2849 3.23525C13.4004 3.0765 13.5557 2.90568 13.7633 2.75231C14.1972 2.43124 14.6348 2.35196 14.8377 2.32682L14.8388 2.32711Z" fill="white"/>
<path d="M12.5132 29.7785L18.3033 8.16946C18.3743 7.9045 18.3211 7.61764 18.1436 7.40762C18.1428 7.40628 18.1413 7.40359 18.1394 7.40196C18.1221 7.38142 18.1045 7.36193 18.0856 7.34323C17.9318 7.18502 17.7309 7.07895 17.517 7.02164L15.6898 6.53204C15.5823 6.55888 15.3795 6.62609 15.1919 6.79846C15.1916 6.79952 15.1892 6.8 15.1886 6.80212C15.0592 6.92308 14.9675 7.07799 14.9133 7.24634L7.70155 29.4445C7.66108 29.57 7.66049 29.7084 7.71361 29.8294C7.71361 29.8294 7.71438 29.8308 7.71516 29.8321C7.78998 29.9998 7.91031 30.0957 7.97188 30.1383L11.2879 31.0268C11.3763 31.046 11.6478 31.0926 11.924 30.9474C12.2494 30.7756 12.3636 30.4518 12.4026 30.2634C12.437 30.1011 12.4714 29.9388 12.5143 29.7788L12.5132 29.7785Z" fill="#FCD901"/>
<path d="M20.505 31.6314L25.1517 9.74778C25.2088 9.47911 25.1398 9.19596 24.9517 8.99561C24.9507 8.99533 24.9494 8.99157 24.9475 8.98994C24.9289 8.97017 24.911 8.95176 24.8907 8.93382C24.729 8.78373 24.523 8.68875 24.3062 8.64203L21.3399 8.01078C21.1218 7.96484 20.8904 8.03233 20.7464 8.19936C20.7459 8.20148 20.7432 8.20302 20.7418 8.2038C20.7388 8.20641 20.7366 8.21037 20.7347 8.21326C20.8796 8.05557 21.1032 7.99166 21.3157 8.03724L22.4324 8.27513C22.3256 8.30784 22.1283 8.38447 21.9493 8.56711C21.949 8.56817 21.9477 8.56894 21.946 8.57077C21.823 8.69797 21.7403 8.85756 21.6946 9.0282L15.659 31.5745C15.6249 31.7017 15.6313 31.8397 15.692 31.9582C15.692 31.9582 15.6927 31.9595 15.6935 31.9609C15.7534 32.078 15.8347 32.1577 15.8999 32.2081L19.3484 32.9425C19.438 32.9574 19.711 32.9896 19.9797 32.8299C20.2961 32.6409 20.3921 32.3122 20.4216 32.1213C20.4472 31.9578 20.473 31.7932 20.5074 31.6309L20.505 31.6314Z" fill="#FCD901"/>
<path d="M7.71407 29.8318C7.71407 29.8318 7.71329 29.8305 7.71251 29.8292C7.65939 29.7081 7.6597 29.5708 7.70045 29.4442L14.9122 7.24607C14.9664 7.07772 15.0581 6.92281 15.1875 6.80185C15.1878 6.80079 15.1902 6.8003 15.1908 6.79818C15.3787 6.62475 15.5812 6.5586 15.6887 6.53176L14.5862 6.23635C14.3713 6.17875 14.1363 6.23394 13.9839 6.39415C13.9833 6.39627 13.9806 6.39783 13.9793 6.3986C13.8168 6.57089 13.7734 6.76259 13.7604 6.84089C11.3569 14.287 8.95341 21.733 6.5499 29.1791C6.51058 29.3004 6.50715 29.4323 6.55524 29.5509C6.56836 29.5828 6.58496 29.6145 6.60687 29.6476C6.71448 29.8037 6.8729 29.8552 6.95732 29.8722C7.02976 29.887 7.10028 29.9048 7.17158 29.9239L7.96972 30.1378C7.90814 30.0951 7.78812 29.9982 7.71301 29.8316L7.71407 29.8318Z" fill="#FEB000"/>
<path d="M15.6922 31.9616C15.6922 31.9616 15.6914 31.9603 15.6906 31.9589C15.631 31.8407 15.6233 31.7035 15.6577 31.5753L21.6932 9.02896C21.739 8.85833 21.8219 8.69768 21.9447 8.57154C21.945 8.57048 21.9463 8.56971 21.948 8.56787C22.1269 8.38523 22.3242 8.30861 22.4311 8.2759L21.3143 8.038C21.1029 7.99271 20.8783 8.05634 20.7334 8.21403C20.7288 8.21847 20.7244 8.22185 20.7209 8.22658C20.7203 8.2287 20.7176 8.23025 20.7163 8.23103C20.563 8.41146 20.5295 8.60467 20.5207 8.68412C18.5116 16.2461 16.5025 23.8081 14.4944 31.3703C14.4615 31.4933 14.4647 31.6259 14.5193 31.7416C14.5337 31.7728 14.5528 31.804 14.5763 31.8353C14.6923 31.9856 14.853 32.0287 14.9385 32.0414C15.0118 32.0531 15.0835 32.0666 15.1546 32.0822C15.4243 32.1397 15.693 32.197 15.9627 32.2545C15.9453 32.243 15.922 32.2277 15.8964 32.2083C15.8323 32.1582 15.7507 32.0795 15.69 31.961L15.6922 31.9616Z" fill="#FFAF00"/>
<path d="M27.0979 35.9594C28.9414 26.9809 30.7838 18.002 32.6273 9.02347C32.7689 8.33328 32.6634 7.60755 32.2913 7.00806C32.2682 6.97117 32.2439 6.934 32.2186 6.89654C32.1428 6.78764 32.0632 6.68906 31.982 6.60029C31.6207 6.20358 31.1424 5.93231 30.6231 5.79316L27.4827 4.95169C27.4777 4.96172 27.4794 4.95988 27.4744 4.96991C27.7162 5.15737 28.1709 5.56319 28.4522 6.23721C28.8066 7.08983 28.6789 7.88144 28.5643 8.30057C28.4787 8.61159 28.4101 8.92717 28.346 9.24283C26.6419 17.7567 24.9375 26.2715 23.2334 34.7854C23.2008 34.9493 23.1534 35.1093 23.0924 35.2644L27.0012 36.3118C27.0146 36.2745 27.0246 36.2374 27.0359 36.1995C27.0401 36.1836 27.0468 36.1672 27.051 36.1513C27.0681 36.0878 27.0851 36.0242 27.0979 35.9594Z" fill="#FEB000"/>
<path d="M23.0925 35.2645C22.9512 35.6299 22.7343 35.9625 22.4466 36.2319C22.4162 36.2601 22.3834 36.2888 22.3509 36.3164C21.7323 36.8458 21.0617 36.9649 20.787 36.9981L24.0339 37.8681C24.6681 38.038 25.3499 37.9708 25.9152 37.6406C25.9519 37.6187 25.9888 37.5956 26.0261 37.5715C26.1298 37.5039 26.2233 37.4313 26.3084 37.3564C26.3548 37.3154 26.3993 37.2728 26.4419 37.2286C26.456 37.2142 26.4694 37.1984 26.4835 37.1841C26.5123 37.1532 26.5403 37.1209 26.5673 37.0884C26.5809 37.0716 26.5943 37.0558 26.6079 37.039C26.6373 37.0015 26.6647 36.9634 26.692 36.9253C26.6996 36.9137 26.7084 36.9024 26.716 36.8908C26.7505 36.8387 26.7829 36.7861 26.8131 36.7328C26.8192 36.7231 26.8244 36.712 26.8294 36.702C26.8539 36.6574 26.8765 36.6112 26.8991 36.565C26.9066 36.55 26.9133 36.5336 26.9207 36.5186C26.9404 36.475 26.9582 36.4298 26.9757 36.3856C26.9808 36.3711 26.9872 36.3557 26.9922 36.3412C26.9948 36.3317 26.9992 36.3237 27.0028 36.3145L23.094 35.2671L23.0925 35.2645Z" fill="#FF8C04"/>
<path d="M15.9096 36.3603L17.7783 36.861L17.6673 37.2754C17.6096 37.4905 17.6029 37.7159 17.6531 37.9327C17.6699 38.0065 17.6929 38.0865 17.7234 38.1685C17.7588 38.2621 17.7984 38.3442 17.841 38.4193C17.9668 38.6393 18.1786 38.7982 18.4211 38.8723L18.9082 39.021L18.7986 39.4301C18.59 39.3742 18.3676 39.3953 18.1792 39.4981C18.0776 39.5538 17.9688 39.628 17.8614 39.7265C17.6182 39.9533 17.4998 40.2078 17.4434 40.3756C17.4201 40.4454 17.3926 40.5142 17.3629 40.5823C17.3061 40.7136 17.2308 40.9604 17.312 41.2491C17.3418 41.3548 17.3861 41.445 17.4375 41.5213C17.5719 41.722 17.7838 41.8594 18.0179 41.9222L18.1243 41.9507L17.7881 43.2055C17.7491 43.3382 17.5995 43.7945 17.1323 44.1078C16.761 44.357 16.3884 44.381 16.2347 44.3841L16.8519 44.5495C17.1904 44.6402 17.5499 44.6479 17.8854 44.5493C17.9721 44.5237 18.0619 44.4909 18.1531 44.4483C18.187 44.4324 18.2188 44.416 18.2495 44.3992C18.6783 44.1654 18.9796 43.752 19.1057 43.2814L20.7885 37.0008L16.0784 35.7387L15.9112 36.363L15.9096 36.3603ZM18.2119 41.6197L18.1327 41.6087C18.0629 41.5753 17.9056 41.4899 17.7863 41.3092C17.6825 41.1519 17.6585 40.9989 17.6514 40.9232C17.6477 40.8222 17.6484 40.5214 17.8562 40.2397C17.9319 40.1361 18.0169 40.0612 18.0931 40.0067C18.1721 39.9506 18.2454 39.8896 18.3109 39.8197C18.3705 39.755 18.4646 39.6803 18.6004 39.6417C18.6522 39.6272 18.702 39.62 18.748 39.6187L18.2119 41.6197ZM18.0022 37.3322L18.1316 36.9557L19.3725 37.2882L19.0084 38.6469L18.6403 38.5562C18.3598 38.4878 18.1195 38.2951 18.0118 38.0288C18.0102 38.0261 18.0089 38.0224 18.0084 38.02C17.9986 37.9969 17.9902 37.9731 17.9839 37.9498C17.9203 37.7487 17.9339 37.532 18.0022 37.3322Z" fill="#DC1C06"/>
<path d="M15.6494 44.2273C15.6313 44.2225 15.6111 44.217 15.5891 44.21C15.6114 44.216 15.6313 44.2225 15.6494 44.2273Z" fill="#DC1C06"/>
<path d="M16.4655 43.4975C16.6255 43.3302 16.7399 43.1541 16.8219 42.9887C16.9845 42.6585 17.0228 42.2814 16.9395 41.924C16.8976 41.7401 16.843 41.5437 16.7706 41.3369C16.7456 41.2643 16.7197 41.1949 16.6935 41.1265C16.466 40.5453 16.4288 39.9095 16.5901 39.3075L16.7202 38.8221C16.7637 38.6599 16.8361 38.5089 16.9246 38.3657C17.0162 38.2198 17.1133 37.9891 17.0646 37.7114C17.0644 37.7079 17.0631 37.7042 17.0626 37.7018C17.0057 37.3946 16.7602 37.1573 16.4576 37.0819L15.7628 36.9082L15.6586 37.2972C15.871 37.3473 16.0842 37.3987 16.2966 37.4488C16.3529 37.4559 16.5077 37.4827 16.6494 37.6092C16.6502 37.6106 16.6523 37.6111 16.6531 37.6125C16.795 37.7425 16.791 37.9664 16.6544 38.1013C16.5415 38.2119 16.4185 38.3561 16.3055 38.5394C16.1212 38.8399 16.0425 39.121 16.0072 39.3035C15.9344 39.5157 15.8104 39.9698 15.9121 40.5355C15.9971 41.0058 16.202 41.3561 16.3621 41.5716C16.5363 41.8069 16.6341 42.0932 16.6066 42.3834C16.5985 42.4562 16.5847 42.5332 16.561 42.6132C16.5511 42.6457 16.5405 42.677 16.529 42.7068C16.3444 43.1788 15.833 43.4484 15.3328 43.353L15.3275 43.3516C15.2103 43.3292 15.1038 43.3007 15.0068 43.2713C14.9448 43.2513 14.8818 43.2355 14.8173 43.2251L14.4282 43.1617C14.4603 43.2464 14.4985 43.3294 14.5459 43.4079C14.5633 43.4365 14.5816 43.4663 14.6014 43.4944C14.8176 43.8113 15.0941 43.9967 15.3217 44.1054C15.6623 44.0388 16.1001 43.8778 16.4655 43.4975Z" fill="#DC1C06"/>
<path d="M14.3353 42.8063C14.3331 42.7887 14.3289 42.7705 14.3268 42.7529C14.3289 42.7705 14.3321 42.7884 14.3353 42.8063Z" fill="#DC1C06"/>
<path d="M15.3439 42.8687C15.37 42.8609 15.3963 42.852 15.4216 42.8429C15.8338 42.6921 16.0546 42.2469 15.9751 41.8155C15.9547 41.7044 15.9237 41.5859 15.88 41.464C15.6458 40.8185 15.1671 40.4381 14.8674 40.2499L14.7197 40.801C14.8959 40.897 15.0984 41.0479 15.2694 41.2822C15.4896 41.5843 15.5584 41.8936 15.5798 42.0947C15.5913 42.1966 15.5238 42.291 15.4228 42.3105C15.2708 42.3413 15.0552 42.3585 14.8079 42.3025C14.6564 42.2676 14.5274 42.2125 14.4209 42.1545C14.4032 42.144 14.3833 42.1376 14.3657 42.1351C14.329 42.2889 14.3118 42.4467 14.3166 42.6036C14.608 42.8612 14.9932 42.9644 15.3439 42.8687Z" fill="#DC1C06"/>
<path d="M15.5776 44.2058C15.5585 44.2007 15.5399 44.1934 15.5189 44.1866C15.5399 44.1934 15.5595 44.201 15.5776 44.2058Z" fill="#DC1C06"/>
<path d="M14.4162 43.1301C14.4077 43.1062 14.3996 43.0813 14.3914 43.0564C14.3985 43.081 14.4069 43.1049 14.4162 43.1301Z" fill="#DC1C06"/>
<path d="M15.4968 44.1796C15.4801 44.174 15.4615 44.1667 15.444 44.1598C15.4626 44.167 15.4801 44.174 15.4968 44.1796Z" fill="#DC1C06"/>
<path d="M14.3684 42.9764C14.3621 42.9532 14.3558 42.9299 14.3519 42.9061C14.3568 42.9302 14.3631 42.9535 14.3684 42.9764Z" fill="#DC1C06"/>
<path d="M6.89789 41.1019C6.94636 41.0104 6.98731 40.9214 7.02153 40.8363C7.1116 40.6151 7.15038 40.3767 7.12744 40.1388C7.11455 40.0081 7.0896 39.8629 7.04585 39.7069C7.02182 39.6221 6.99529 39.5423 6.966 39.4685C6.87537 39.2364 6.69151 39.0542 6.46378 38.9591L6.37205 39.3014C6.4708 39.3926 6.59202 39.5319 6.6728 39.7285C6.85677 40.1742 6.70315 40.5772 6.66702 40.6652C6.6142 40.8453 6.47336 40.9836 6.2969 41.0249C6.29314 41.0262 6.28965 41.0264 6.28589 41.0277C6.31397 41.0931 6.34554 41.1584 6.3825 41.2205C6.39994 41.2491 6.41845 41.2779 6.43803 41.307C6.55343 41.4765 6.68602 41.6074 6.81931 41.7102C6.75334 41.6584 6.68694 41.5997 6.62281 41.5326C6.71585 41.411 6.81137 41.2673 6.89789 41.1019Z" fill="#DC1C06"/>
<path d="M8.38161 40.5238C8.38689 40.3252 8.36879 39.9671 8.16842 39.5954C8.13573 39.5344 8.10055 39.4784 8.0653 39.4269C7.85683 39.1279 7.72854 38.7766 7.73513 38.4115C7.73492 38.408 7.73471 38.4046 7.73478 38.4C7.73563 38.3969 7.73513 38.3945 7.73492 38.391C7.74541 38.0667 7.86068 37.7556 8.04924 37.4904C8.25065 37.207 8.45788 36.8763 8.64958 36.4971C8.70388 36.3924 8.75334 36.2886 8.79877 36.1872C8.96152 35.831 8.94009 35.4129 8.73241 35.0812C8.7173 35.0567 8.70035 35.0306 8.68204 35.0053C8.68048 35.0026 8.67893 34.9999 8.67737 34.9972C8.47273 34.7095 8.16676 34.5105 7.82622 34.4192L7.69001 34.3828L7.5642 34.8523L7.73277 34.8872C8.04437 34.9503 8.31607 35.1537 8.44749 35.4422C8.44799 35.4446 8.44954 35.4473 8.45003 35.4497C8.45365 35.4575 8.45649 35.4639 8.46011 35.4717C8.57372 35.7373 8.52564 36.0402 8.34837 36.2676C8.21743 36.437 8.08182 36.6324 7.95166 36.8542C7.71689 37.2536 7.56535 37.6276 7.46512 37.9336C7.41378 38.138 7.33346 38.5867 7.48555 39.1216C7.56121 39.3884 7.67639 39.6055 7.78676 39.7725C7.97913 40.0592 8.04454 40.4153 7.9543 40.7478C7.95345 40.7509 7.9529 40.7531 7.95098 40.756L7.94899 40.7634C7.83966 41.1544 7.59404 41.4964 7.25834 41.7233C7.2543 41.7257 7.25132 41.7283 7.24728 41.7306C7.17653 41.7775 7.1072 41.8191 7.03902 41.8565C7.22119 41.9599 7.38706 42.0134 7.4871 42.0402C7.51583 42.0479 7.53924 42.0542 7.55549 42.0574L7.66191 42.0859C7.79525 41.9331 7.93725 41.7394 8.06344 41.4983C8.26458 41.1137 8.34552 40.7606 8.38161 40.5238Z" fill="#DC1C06"/>
<path d="M7.74624 34.1729L11.2091 35.1008L11.1577 35.2926C10.9768 35.3589 10.7878 35.4343 10.5922 35.5216C10.4289 35.5949 10.2743 35.6693 10.1296 35.7453C9.75087 35.9414 9.43219 36.2411 9.22431 36.6125C9.22346 36.6157 9.22261 36.6189 9.21963 36.6215C9.13297 36.7789 9.0691 36.9321 9.02168 37.0751C8.85606 37.5782 8.88547 38.1325 9.1472 38.5945C9.18046 38.6534 9.21827 38.7124 9.26062 38.7714C9.50008 39.1037 9.80073 39.3012 10.0524 39.4175L9.6239 41.0168C9.58493 41.1495 9.43529 41.6058 8.9681 41.9191C8.59543 42.1691 8.22181 42.1928 8.06842 42.1949L8.68672 42.3605C9.02513 42.4512 9.38462 42.4589 9.72016 42.3603C9.80686 42.3347 9.8969 42.3009 9.98815 42.2583C10.021 42.2421 10.0539 42.2259 10.0846 42.2092C10.5131 41.9764 10.8143 41.563 10.9407 41.0913L12.6236 34.8107L7.9135 33.5487L7.74624 34.1729ZM10.1694 38.9809C10.0877 38.9283 10.0021 38.869 9.91632 38.8017L9.91264 38.7985C9.559 38.5219 9.36765 38.0867 9.40065 37.6401C9.40826 37.5478 9.42048 37.4511 9.43809 37.3513L9.44008 37.3439C9.51486 36.9414 9.74785 36.5869 10.0777 36.3436C10.1901 36.2602 10.3155 36.1756 10.4535 36.0945C10.6515 35.9771 10.8424 35.8863 11.0177 35.8151L10.1694 38.9809Z" fill="#DC1C06"/>
<path d="M6.16722 40.5938C6.1641 40.5713 6.16232 40.5482 6.16055 40.525C6.16232 40.5482 6.16439 40.5703 6.16722 40.5938Z" fill="#DC1C06"/>
<path d="M6.26151 40.9655C6.25307 40.9417 6.24222 40.9183 6.23512 40.8937C6.24356 40.9175 6.25307 40.9417 6.26151 40.9655Z" fill="#DC1C06"/>
<path d="M6.17263 40.1011C6.17504 40.0836 6.17745 40.066 6.17987 40.0485C6.17639 40.0657 6.17504 40.0836 6.17263 40.1011Z" fill="#DC1C06"/>
<path d="M10.0777 36.3436C9.74788 36.5869 9.5149 36.9414 9.44012 37.3439L9.43813 37.3513C9.42052 37.4511 9.40829 37.5478 9.40068 37.6401C9.36769 38.0867 9.55904 38.5219 9.91267 38.7984L9.91635 38.8017C10.0021 38.869 10.0877 38.9283 10.1695 38.9808L11.0177 35.8151C10.8424 35.8863 10.6515 35.9771 10.4536 36.0945C10.3155 36.1756 10.1902 36.2602 10.0777 36.3436Z" fill="#FF7230"/>
<path d="M6.66702 40.6652C6.70315 40.5772 6.85677 40.1742 6.6728 39.7285C6.59203 39.5319 6.4708 39.3926 6.37205 39.3014L6.21416 39.8907C6.20024 39.9426 6.18951 39.9954 6.18014 40.0474C6.17666 40.0647 6.17531 40.0825 6.1729 40.1C6.16807 40.1351 6.16323 40.1701 6.16052 40.2057C6.15832 40.2267 6.15719 40.248 6.15606 40.2693C6.15449 40.3007 6.1537 40.3334 6.15319 40.3651C6.15284 40.3877 6.15355 40.4106 6.15425 40.4335C6.1551 40.4644 6.15834 40.4948 6.16054 40.5249C6.16231 40.5481 6.16437 40.5703 6.16721 40.5937C6.17125 40.6255 6.17769 40.6568 6.18308 40.6877C6.18755 40.7094 6.18988 40.7305 6.19463 40.751C6.20562 40.7994 6.21902 40.8473 6.23483 40.8947C6.24327 40.9186 6.25278 40.9427 6.26121 40.9665C6.26944 40.9869 6.27525 41.0078 6.28454 41.0284C6.28802 41.0282 6.29179 41.027 6.29555 41.0257C6.47201 40.9844 6.61286 40.8461 6.66567 40.666L6.66702 40.6652Z" fill="#FF7230"/>
<path d="M7.25835 41.7233C7.59405 41.4963 7.83967 41.1544 7.949 40.7634L7.95098 40.7559C7.95098 40.7559 7.95346 40.7509 7.95431 40.7477C8.04454 40.4152 7.97913 40.0592 7.78677 39.7725C7.6764 39.6055 7.56121 39.3883 7.48556 39.1216C7.33346 38.5867 7.41379 38.1379 7.46512 37.9336C7.56536 37.6276 7.7169 37.2536 7.95167 36.8542C8.08183 36.6324 8.21744 36.437 8.34837 36.2676C8.52564 36.0402 8.57373 35.7373 8.46011 35.4717C8.4565 35.4639 8.45366 35.4575 8.45004 35.4497C8.44954 35.4473 8.44799 35.4446 8.4475 35.4422C8.31608 35.1537 8.04437 34.9502 7.73277 34.8872L7.56421 34.8522L6.46378 38.9591C6.69151 39.0542 6.87537 39.2364 6.96601 39.4685C6.9953 39.5423 7.02182 39.6221 7.04586 39.7069C7.0896 39.8629 7.11455 40.0081 7.12744 40.1388C7.15039 40.3767 7.1116 40.6151 7.02153 40.8363C6.98732 40.9214 6.94637 41.0104 6.89789 41.1019C6.81138 41.2673 6.71585 41.411 6.62281 41.5326C6.68694 41.5997 6.75334 41.6584 6.81931 41.7102C6.82776 41.717 6.83648 41.7227 6.84493 41.7295C6.86869 41.7473 6.89274 41.7639 6.91601 41.7793C6.92871 41.7872 6.94112 41.7962 6.95276 41.8039C6.97815 41.8198 7.00249 41.8354 7.02739 41.8489C7.03136 41.8511 7.03505 41.8543 7.03902 41.8565C7.10721 41.8191 7.17654 41.7775 7.24728 41.7306C7.25133 41.7283 7.2543 41.7256 7.25835 41.7233Z" fill="#FF7230"/>
<path d="M8.96811 41.919C9.43529 41.6058 9.58493 41.1494 9.62391 41.0168L10.0524 39.4175C9.80073 39.3012 9.50008 39.1036 9.26062 38.7714C9.21827 38.7123 9.18046 38.6533 9.1472 38.5945C8.88548 38.1324 8.85607 37.5782 9.02168 37.075C9.0691 36.9321 9.13297 36.7788 9.21963 36.6214C9.22154 36.6185 9.2224 36.6154 9.22432 36.6125C9.43219 36.2411 9.75088 35.9414 10.1296 35.7453C10.2743 35.6693 10.4289 35.5948 10.5922 35.5216C10.7878 35.4343 10.9768 35.3589 11.1577 35.2926L11.2091 35.1008L7.74624 34.1729L7.69001 34.3827L7.82622 34.4192C8.16676 34.5105 8.47273 34.7095 8.67737 34.9972C8.67893 34.9998 8.68049 35.0025 8.68205 35.0052C8.70035 35.0306 8.7173 35.0567 8.73241 35.0812C8.94009 35.4129 8.96152 35.831 8.79877 36.1872C8.75334 36.2886 8.70388 36.3924 8.64958 36.4971C8.45788 36.8762 8.25065 37.2069 8.04924 37.4903C7.86069 37.7556 7.74541 38.0666 7.73492 38.391C7.73513 38.3944 7.73563 38.3968 7.73478 38.4C7.73471 38.4045 7.73492 38.408 7.73513 38.4115C7.72854 38.7766 7.85683 39.1279 8.0653 39.4269C8.10055 39.4783 8.13573 39.5343 8.16842 39.5953C8.36879 39.9671 8.38689 40.3252 8.38161 40.5237C8.34553 40.7606 8.26458 41.1137 8.06345 41.4983C7.93726 41.7394 7.79525 41.9331 7.66191 42.0859C7.66191 42.0859 7.66191 42.0859 7.66163 42.087L8.06496 42.195C8.06496 42.195 8.06736 42.1945 8.06842 42.1948C8.22182 42.1928 8.59544 42.1691 8.96811 41.919Z" fill="#FF7230"/>
<path d="M18.0084 38.02C18.0084 38.02 18.0102 38.0261 18.0118 38.0288C18.1195 38.2951 18.3598 38.4878 18.6404 38.5562L19.0084 38.6469L19.3725 37.2881L18.1317 36.9557L18.0022 37.3322C17.9339 37.532 17.9203 37.7487 17.9839 37.9498C17.9902 37.973 17.9987 37.9969 18.0084 38.02Z" fill="#FF7230"/>
<path d="M18.3109 39.8197C18.2454 39.8896 18.1707 39.9513 18.0932 40.0067C18.0172 40.0602 17.9329 40.1364 17.8562 40.2397C17.6484 40.5214 17.6477 40.8222 17.6514 40.9231C17.6585 40.9989 17.6825 41.1518 17.7864 41.3092C17.9056 41.4899 18.0629 41.5752 18.1327 41.6087L18.2119 41.6197L18.748 39.6187C18.7021 39.62 18.6522 39.6271 18.6005 39.6417C18.4649 39.6792 18.3705 39.755 18.3109 39.8197Z" fill="#FF7230"/>
<path d="M14.4209 42.1545C14.5274 42.2125 14.6564 42.2676 14.8079 42.3025C15.0552 42.3585 15.2708 42.3413 15.4228 42.3105C15.5238 42.291 15.5913 42.1966 15.5798 42.0947C15.5584 41.8936 15.4896 41.5843 15.2694 41.2822C15.0984 41.0479 14.8959 40.897 14.7197 40.801L14.3775 42.0781C14.3724 42.0972 14.3676 42.1152 14.3635 42.1346C14.3635 42.1346 14.3646 42.1348 14.3657 42.1351C14.3843 42.1378 14.4029 42.1451 14.4209 42.1545Z" fill="#FF7230"/>
<path d="M15.0068 43.2713C15.1038 43.3007 15.2103 43.3292 15.3275 43.3515L15.3328 43.353C15.833 43.4484 16.3444 43.1788 16.529 42.7068C16.5405 42.677 16.5511 42.6457 16.561 42.6132C16.5847 42.5332 16.5985 42.4562 16.6066 42.3834C16.6341 42.0932 16.5363 41.8069 16.3621 41.5716C16.202 41.3561 15.9971 41.0058 15.9121 40.5355C15.8104 39.9698 15.9344 39.5157 16.0072 39.3035C16.0425 39.1209 16.1212 38.8399 16.3055 38.5394C16.4185 38.3561 16.5415 38.2119 16.6544 38.1013C16.791 37.9663 16.795 37.7425 16.6531 37.6125C16.6523 37.6111 16.6502 37.6106 16.6494 37.6092C16.5077 37.4826 16.3529 37.4559 16.2966 37.4488C16.0842 37.3987 15.871 37.3473 15.6586 37.2972L14.8674 40.2499C15.1671 40.4381 15.6458 40.8185 15.88 41.464C15.9237 41.5859 15.9547 41.7044 15.9751 41.8155C16.0546 42.2469 15.8338 42.6921 15.4216 42.8429C15.3963 42.852 15.37 42.8609 15.3439 42.8686C14.9932 42.9644 14.608 42.8612 14.3166 42.6036C14.3179 42.6539 14.3217 42.7038 14.3278 42.7531C14.3299 42.7707 14.3331 42.7886 14.3363 42.8065C14.3411 42.8396 14.347 42.873 14.3529 42.9064C14.3579 42.9304 14.3642 42.9537 14.3694 42.9767C14.376 43.0034 14.3835 43.0305 14.3922 43.0578C14.3993 43.0824 14.4077 43.1062 14.4169 43.1314C14.421 43.1416 14.4238 43.1526 14.4269 43.1625L14.429 43.1631L14.8181 43.2264C14.8826 43.2369 14.9456 43.2526 15.0076 43.2726L15.0068 43.2713Z" fill="#FF7230"/>
<path d="M17.1315 44.1064C17.5987 43.7931 17.7484 43.3368 17.7873 43.2042L18.1236 41.9493L18.0171 41.9208C17.783 41.8581 17.5712 41.7206 17.4368 41.5199C17.3854 41.4437 17.3411 41.3534 17.3112 41.2477C17.2301 40.959 17.3042 40.712 17.3622 40.581C17.3918 40.5128 17.4194 40.4441 17.4426 40.3742C17.499 40.2064 17.6174 39.9519 17.8607 39.7251C17.967 39.6264 18.0769 39.5525 18.1785 39.4968C18.3669 39.3939 18.5903 39.3731 18.7978 39.4287L18.9074 39.0196L18.4203 38.8709C18.1778 38.7969 17.9658 38.639 17.8402 38.4179C17.7973 38.3439 17.758 38.2607 17.7227 38.1671C17.6908 38.0859 17.6688 38.0062 17.6524 37.9314C17.6032 37.7148 17.6092 37.4881 17.6665 37.274L17.7776 36.8596L15.9089 36.3589L15.762 36.9069L16.4569 37.0805C16.7595 37.1559 17.005 37.3933 17.0618 37.7004C17.0613 37.7025 17.0636 37.7066 17.0638 37.71C17.1123 37.9888 17.0154 38.2185 16.9239 38.3643C16.8345 38.5062 16.7629 38.6586 16.7195 38.8207L16.5894 39.3061C16.4281 39.9081 16.4653 40.544 16.6928 41.1252C16.719 41.1935 16.7448 41.263 16.7699 41.3355C16.8422 41.5424 16.8968 41.7387 16.9388 41.9226C17.0221 42.2801 16.9838 42.6571 16.8212 42.9873C16.7392 43.1528 16.6247 43.3288 16.4647 43.4961C16.0993 43.8764 15.6615 44.0374 15.3209 44.104C15.3209 44.104 15.3209 44.104 15.3198 44.1038C15.3633 44.1245 15.4045 44.1412 15.4438 44.1563C15.4613 44.1632 15.4799 44.1705 15.4966 44.1761C15.5041 44.1781 15.5112 44.1812 15.5184 44.1842C15.5394 44.191 15.5591 44.1985 15.5772 44.2034C15.5814 44.2045 15.5846 44.2054 15.5889 44.2065C15.6112 44.2125 15.6311 44.219 15.6492 44.2238C15.6492 44.2238 15.6492 44.2238 15.6503 44.2241L16.2282 44.3789C16.2282 44.3789 16.2306 44.3785 16.2316 44.3787C16.2316 44.3787 16.2327 44.379 16.2338 44.3793C16.3882 44.3775 16.76 44.3522 17.1313 44.103L17.1315 44.1064Z" fill="#FF7230"/>
<path d="M48.328 33.312C44.2 33.312 42.88 31.008 43.144 27.024C43.144 27.024 44.92 27.072 47.608 27.072C47.464 28.992 47.68 29.88 48.304 29.88C48.76 29.88 48.952 29.568 48.952 28.536C48.952 27.648 48.544 27 46.888 26.16C44.056 24.744 43.192 23.16 43.192 20.568C43.192 17.208 45.424 15.96 48.424 15.96C52.12 15.96 53.656 18.192 53.248 22.32C53.248 22.32 51.04 22.128 48.904 22.08C49.168 20.04 48.808 19.368 48.352 19.368C47.92 19.368 47.728 19.872 47.728 20.76C47.728 21.672 48.184 22.512 49.384 23.04C52.648 24.504 53.488 25.824 53.488 28.488C53.488 31.92 51.4 33.312 48.328 33.312ZM59.3772 33.432C59.3772 33.432 59.4252 29.232 59.4252 25.44C59.4252 24.888 59.2812 24.648 58.9212 24.648C58.5132 24.648 58.4172 24.912 58.3932 25.44C58.3452 27.192 58.3692 32.616 58.3692 32.616C58.3692 32.616 56.4492 32.592 54.0972 32.616C54.0972 32.616 54.1932 28.128 54.1452 21.312C54.1452 21.312 55.5372 21.36 57.4572 21.288C57.4572 21.288 57.4092 22.248 57.4332 23.112C57.9852 21.84 59.2812 20.88 60.6732 20.88C62.5452 20.88 63.5292 22.176 63.6012 24.432C63.6492 25.728 63.6492 33.408 63.6492 33.408C62.1852 33.384 59.3772 33.432 59.3772 33.432ZM67.576 33.36C65.608 33.36 64.12 32.184 64.12 30.096C64.12 27.192 66.208 25.824 69.616 25.896V25.56C69.592 24.24 69.4 23.856 69.04 23.856C68.632 23.856 68.464 24.384 68.416 25.488C68.416 25.488 66.88 25.56 64.456 25.512C64.408 22.944 65.872 20.928 69.208 20.928C72.376 20.928 73.696 22.824 73.768 25.848C73.84 29.424 73.768 33.264 73.768 33.264C73.768 33.264 72.832 33.288 70.624 33.312C70.624 33.312 70.696 32.592 70.72 31.632C70.144 32.952 68.92 33.36 67.576 33.36ZM69.808 28.224C69.808 27.96 69.784 27.744 69.784 27.744C68.584 27.912 68.224 28.68 68.224 29.448C68.224 30 68.416 30.432 68.944 30.432C69.472 30.432 69.808 30 69.808 28.224ZM79.5244 33.288C75.9004 33.288 74.3884 30.96 74.3884 27C74.3884 23.088 76.1884 20.808 79.6924 20.808C83.0524 20.808 84.7084 23.448 84.4444 26.328C81.3964 26.208 80.1724 26.232 80.1724 26.232C80.2204 24.6 79.9804 23.832 79.5004 23.832C79.0204 23.832 78.8524 24.648 78.8524 27.144C78.8524 29.136 79.0204 30 79.5484 30C79.9804 30 80.2444 29.496 80.1484 27.84C80.1484 27.84 81.0844 27.888 84.4684 27.768C84.5644 31.968 82.2604 33.288 79.5244 33.288ZM90.9621 33.576C90.6021 31.944 90.2901 30.648 90.0741 29.712C89.7381 30.312 89.4981 30.792 89.3061 31.176C89.3061 32.064 89.3301 32.616 89.3301 32.616C86.4981 32.544 85.0581 32.568 85.0581 32.568C85.1301 21.504 85.0581 16.704 85.0581 16.704C88.0821 16.8 89.3541 16.752 89.3541 16.752C89.3061 20.832 89.3061 23.424 89.3061 25.824C90.2901 22.656 90.8181 20.856 90.8181 20.856C93.4581 21 95.4981 21.096 95.4981 21.096C94.3701 23.352 93.5781 25.08 93.0741 26.136C94.4901 30.648 95.4981 33.48 95.4981 33.48C92.3781 33.504 90.9621 33.576 90.9621 33.576ZM96.028 33.36C96.028 33.36 96.052 28.176 95.98 16.608C95.98 16.608 97.276 16.656 100.372 16.632C100.372 16.632 100.204 18.912 100.156 22.416C100.732 21.528 101.548 20.952 102.772 20.952C105.244 20.952 106.204 23.328 106.204 27.072C106.204 31.08 104.404 32.904 102.22 32.904C100.732 32.904 99.772 32.28 99.316 31.392C99.316 31.992 99.34 32.64 99.364 33.336C99.364 33.336 98.212 33.336 96.028 33.36ZM100.948 30.36C101.356 30.36 101.596 29.376 101.596 27C101.596 24.696 101.428 23.784 100.948 23.784C100.516 23.784 100.276 24.624 100.276 26.904C100.276 29.496 100.42 30.36 100.948 30.36ZM109.856 33.552C108.08 33.552 106.448 32.376 106.448 30.096C106.448 27.408 108.296 26.016 111.944 26.088V25.752C111.92 24.432 111.728 24.096 111.368 24.096C110.96 24.096 110.792 24.528 110.744 25.584C110.744 25.584 109.208 25.488 106.784 25.44C107 22.824 108.512 21.168 111.536 21.168C114.632 21.168 116.024 22.968 116.096 26.04C116.168 29.616 116.096 33.672 116.096 33.672C116.096 33.672 115.16 33.696 112.952 33.72C112.952 33.72 113.024 32.832 113.048 31.776C112.496 33 111.32 33.552 109.856 33.552ZM111.32 30.696C111.848 30.696 112.136 30.144 112.136 28.224V27.96C110.912 28.104 110.552 28.776 110.552 29.688C110.552 30.24 110.84 30.696 111.32 30.696ZM117.005 33.096C117.005 33.096 117.053 26.976 116.957 20.976C116.957 20.976 117.581 21.024 120.461 20.952C120.461 20.952 120.389 21.84 120.365 23.064C120.989 21.648 122.453 20.64 123.821 20.664C123.821 20.664 123.701 21.816 123.653 24.984C121.853 25.272 121.277 26.328 121.229 28.08C121.181 30.048 121.253 33.072 121.253 33.072C121.253 33.072 120.173 33.048 117.005 33.096ZM124.341 32.544C124.341 32.544 124.389 27.336 124.293 21.336C124.293 21.336 124.917 21.384 127.797 21.312C127.797 21.312 127.725 22.008 127.701 23.088C128.325 21.552 129.789 20.448 131.157 20.472C131.157 20.472 131.037 21.624 130.989 24.792C129.189 25.08 128.613 26.136 128.565 27.888C128.517 29.856 128.589 32.52 128.589 32.52C128.589 32.52 127.509 32.496 124.341 32.544ZM136.431 33.24C132.375 33.24 131.271 30.432 131.271 26.952C131.271 23.592 132.687 20.832 136.407 20.832C140.559 20.832 141.687 23.952 141.399 28.032C141.399 28.032 139.119 28.032 135.639 28.08C135.711 29.688 135.951 30.264 136.455 30.264C136.839 30.264 137.103 29.928 137.151 28.896C137.151 28.896 139.383 28.92 141.471 28.992C141.111 31.728 139.167 33.24 136.431 33.24ZM136.383 23.592C135.903 23.592 135.687 24.072 135.639 25.992C136.143 25.992 136.551 25.992 137.031 25.968C137.055 24.336 136.815 23.592 136.383 23.592Z" fill="black"/>
</svg>
