<svg width="40" height="40" viewBox="0 0 40 40" fill="none" xmlns="http://www.w3.org/2000/svg">
<path d="M32.29 13.325C32.1 13.4717 28.7733 15.3467 28.7733 19.5183C28.7733 24.3417 33.0067 26.05 33.1333 26.0933C33.115 26.1967 32.4617 28.43 30.9 30.7067C29.51 32.7067 28.055 34.7067 25.845 34.7067C23.635 34.7067 23.065 33.4233 20.5133 33.4233C18.0267 33.4233 17.1433 34.75 15.12 34.75C13.0967 34.75 11.6867 32.8967 10.065 30.62C8.18332 27.95 6.66666 23.7967 6.66666 19.8567C6.66666 13.5367 10.7767 10.1833 14.82 10.1833C16.97 10.1833 18.7617 11.5967 20.11 11.5967C21.3933 11.5967 23.3983 10.1 25.8417 10.1C26.7683 10.1 30.0967 10.1833 32.2883 13.325M13.45 8.68833H16.0933V7.055C16.0933 3.74333 18.2133 2.545 20.11 2.545C22.0067 2.545 24.1433 3.745 24.1433 7.055V8.68833H26.7833V7.34333C26.7833 2.40333 23.55 0 20.11 0C16.6817 0 13.45 2.40333 13.45 7.34333V8.68833Z" fill="white"/>
</svg>
