<svg width="40" height="40" viewBox="0 0 40 40" fill="none" xmlns="http://www.w3.org/2000/svg">
<path d="M32.2834 12.7467C32.0934 12.8934 28.7667 14.7684 28.7667 18.9384C28.7667 23.7617 33 25.4684 33.1267 25.5117C33.1084 25.615 32.455 27.8484 30.8934 30.1234C29.5034 32.125 28.05 34.1234 25.84 34.1234C23.63 34.1234 23.0617 32.84 20.51 32.84C18.0234 32.84 17.14 34.1667 15.1184 34.1667C13.095 34.1667 11.685 32.3134 10.0634 30.0384C8.18502 27.3667 6.66669 23.2167 6.66669 19.2767C6.66669 12.9584 10.775 9.60669 14.8184 9.60669C16.9684 9.60669 18.7584 11.0184 20.1067 11.0184C21.39 11.0184 23.3934 9.52335 25.8367 9.52335C26.7634 9.52335 30.0917 9.60669 32.2817 12.7467H32.2834ZM24.6767 6.84669C25.6884 5.64835 26.4034 3.98335 26.4034 2.32002C26.4034 2.09002 26.3834 1.85502 26.3417 1.66669C24.6967 1.72835 22.74 2.76169 21.5584 4.13002C20.6334 5.18335 19.7684 6.84669 19.7684 8.53502C19.7684 8.78835 19.8117 9.04169 19.83 9.12335C19.935 9.14169 20.1034 9.16502 20.2734 9.16502C21.7484 9.16502 23.6034 8.17669 24.6767 6.84835V6.84669Z" fill="white"/>
</svg>
